<svg id="visual" viewBox="0 0 900 600" width="900" height="600" xmlns="http://www.w3.org/2000/svg" xmlns:xlink="http://www.w3.org/1999/xlink" version="1.1"><rect x="0" y="0" width="900" height="600" fill="#002233"></rect><path d="M0 441L21.5 434.8C43 428.7 86 416.3 128.8 411.5C171.7 406.7 214.3 409.3 257.2 411C300 412.7 343 413.3 385.8 420.5C428.7 427.7 471.3 441.3 514.2 454.5C557 467.7 600 480.3 642.8 469.8C685.7 459.3 728.3 425.7 771.2 417.8C814 410 857 428 878.5 437L900 446" fill="none" stroke-linecap="round" stroke-linejoin="miter" stroke="#0066FF" stroke-width="40"></path></svg><svg viewBox="0 0 200 200" xmlns="http://www.w3.org/2000/svg">
          <path
            fill="#F2F4F8"
            d="M33.4,-56.9C45.3,-51,58.4,-46.1,68.1,-36.8C77.8,-27.5,84.2,-13.7,77.9,-3.7C71.6,6.4,52.5,12.9,41.6,20C30.6,27.2,27.7,35,22.1,43.9C16.5,52.8,8.3,62.6,-3.8,69.2C-15.8,75.8,-31.7,79,-38.6,70.9C-45.6,62.9,-43.7,43.5,-47.6,29.8C-51.5,16.1,-61.2,8,-61.7,-0.3C-62.2,-8.6,-53.4,-17.2,-45.2,-23.4C-36.9,-29.6,-29.2,-33.4,-21.8,-41.9C-14.3,-50.5,-7.2,-63.7,1.8,-66.8C10.8,-69.9,21.5,-62.9,33.4,-56.9Z"
            transform="translate(100 100)"
          />
        </svg>